---
title: Structures
---

erDiagram

    models ||--o{ model_elements : ""
    levees ||--o{ structure_response :""
    levees ||--|{ model_elements : ""
    dams ||--o{ structure_response : ""
    dams ||--|{ model_elements : ""

    events ||--o{ structure_failure_elev : "Predetermined via random sampling"
    events ||--o{ buildings_impacted : "Attributed from RAS Depth Grids"
    buildings ||--o{ buildings_impacted : ""
    structure_failure_elev ||--o{ structure_response : ""


    levees {
        structure_id int PK
        model_id int FK
        system_type str
        nld_system_id str
        nld_system_name str
        nld_segment_id str
        breach_fid str
        top_elev float
        toe_elev float
        source str
        geom geom
        stac_metadata uri
    }
    dams {
        structure_id int PK
        model_id int FK
        system_type str
        nid_id str
        nid_dam_name str
        top_elev float
        toe_elev float
        source str
        geom geom
        stac_metadata uri
    }
    structure_response {
        structure_response_id int PK
        structure_id int FK
        failure_mode str
        source str
        prob_x float
        prob_y float
    }
    structure_failure_elev {
        structure_response_id int PK
        event_id int FK
        failure_elev float
    }

    buildings {
        structure_id int PK
        source_building_id str
        inventory_source str
        inventory_version str
        latitude float
        longitude float
        geom geom
        occupancy_type str
        general_building_type str
        number_stories int
        area_sqft float
        foundation_type str
        first_floor_height_ft float
        basement_type int
        building_cost float
        content_cost float
        inventory_cost float
        bldg_insurance_deductible float
        bldg_insurance_limit float
        content_insurance_deductible float
        content_insurance_limit float
        ground_elevation_ft float
        source str
    }

    buildings_impacted {
        structure_id int PK
        event_id int FK
        inundation_depth float
    }
